<svg xmlns="http://www.w3.org/2000/svg" xml:space="preserve" viewBox="0 0 175.591 325.671"><path d="M34.855 41.282a16.6 16.6 0 0 0 2.27 7.071c1.462 2.473 3.544 4.578 5.871 6.247a25.7 25.7 0 0 0 7.982 3.83c2.84.802 5.759 1.07 8.7.872 2.921-.197 5.85-.781 8.528-1.993a18.1 18.1 0 0 0 5.406-3.737c1.619-1.984 2.969-4.2 3.84-6.461 1.029-2.672 1.338-5.39 1.011-7.905-.331-2.549-1.265-4.85-2.514-6.889-1.295-2.113-2.938-3.959-4.778-5.572-1.876-1.644-3.974-3.104-6.276-4.197a20.7 20.7 0 0 0-7.919-1.991 20.7 20.7 0 0 0-8.186 1.29c-2.255.839-4.427 2.104-6.387 3.694q-.43.36-.845.739c-2.708 2.477-4.924 5.567-6.106 8.863a17.7 17.7 0 0 0-.597 6.139" style="fill:#e02002"/><path d="M55.341 22.815a.2.2 0 0 1 .008-.124c-.396-.365-1.027-.481-1.542-.522a6.8 6.8 0 0 0-1.899.141c-1.4.284-2.741.844-3.999 1.512a18.3 18.3 0 0 0-3.057 2.029c-.997.821-2.143 1.664-2.748 2.838-.262.509-.368 1.147.106 1.571.463.415 1.205.411 1.787.375 1.183-.073 2.378-.379 3.528-.654 1.328-.318 2.651-.705 3.901-1.26 1.196-.531 2.39-1.222 3.218-2.258.842-1.052 1.036-2.36.697-3.648" style="fill:#e12127"/><path d="M52.465 23.493a.07.07 0 0 1 .003-.046c-.146-.135-.379-.178-.569-.193a2.5 2.5 0 0 0-.701.052c-.517.105-1.012.312-1.477.559a6.7 6.7 0 0 0-1.129.75c-.368.303-.792.615-1.015 1.048-.097.188-.136.424.039.58.171.153.445.152.66.139.437-.027.878-.14 1.303-.242a8.4 8.4 0 0 0 1.441-.465c.442-.196.883-.451 1.189-.834.31-.39.382-.873.256-1.348M46.666 27.093a.06.06 0 0 1 .002-.036c-.114-.105-.296-.139-.445-.151a2 2 0 0 0-.548.041 4.3 4.3 0 0 0-1.154.436q-.472.248-.882.586c-.288.237-.619.48-.793.819-.076.147-.106.331.031.453.134.12.348.119.516.108.341-.021.686-.109 1.018-.189a6.6 6.6 0 0 0 1.126-.364c.345-.153.69-.352.929-.652.242-.302.298-.679.2-1.051" style="opacity:.62;fill:#fff"/><path d="M77.451 47.11c1.029-2.672 1.338-5.39 1.011-7.905-.331-2.55-1.266-4.85-2.515-6.889-1.295-2.113-2.938-3.959-4.778-5.572-1.876-1.644-3.974-3.104-6.276-4.197a21 21 0 0 0-2.084-.851c1.831 1.167 3.463 2.613 4.906 4.234.177.199-.09.476-.29.297a8.5 8.5 0 0 0-1.712-1.167c-1.416-.75-3.034-1.245-4.643-1.269-1.451-.022-2.961.411-3.823 1.657-1.561 2.256.392 5.027 1.988 6.649.876.89 1.86 1.672 2.974 2.243 1.401.717 2.912 1.224 4.244 2.073 1.23.784 2.227 1.913 2.216 3.447-.01 1.538-.823 3.035-1.858 4.131-1.079 1.143-2.466 1.955-3.907 2.556-1.578.659-3.252 1.076-4.939 1.336-3.282.505-6.589.429-9.81-.407-2.026-.526-4.018-1.329-5.716-2.571a11.05 11.05 0 0 1-3.749-4.79c-1.114-2.731-1.098-5.81-.321-8.627a17.4 17.4 0 0 1 1.269-3.257c-1.828 2.073-3.303 4.435-4.192 6.915-.546 1.995-.766 4.074-.594 6.14a16.6 16.6 0 0 0 2.27 7.071c1.462 2.473 3.544 4.578 5.871 6.247a25.7 25.7 0 0 0 7.982 3.83c2.84.802 5.759 1.07 8.7.872 2.921-.197 5.85-.781 8.528-1.993a18.1 18.1 0 0 0 5.406-3.737c1.621-1.989 2.971-4.205 3.842-6.466" style="fill:#a31516"/><path d="M71.044 32.286a.2.2 0 0 0-.046.009q-.541.163-1.093.242-.01-.004-.021-.007c-.403-.064-.799-.175-1.143-.398-.37-.239-.697-.535-1.055-.791a7 7 0 0 0-.753-.462 6.2 6.2 0 0 0-2.268-1.168c-1.07-.296-2.174-.388-3.266-.563-.886-.142-1.588-.315-2.251-.936-.594-.556-1.217-1.481-.835-2.317.015-.034-.004-.059-.032-.074.079-.205.187-.41.333-.614.738-1.033 2.376-1.501 3.563-1.054.12.045.228-.04.21-.121-1.622-.636-3.502-.312-4.85.731A2.93 2.93 0 0 0 57 27.718c.581 1.591 2.007 2.843 3.424 3.693 1.626.976 3.457 1.608 5.325 1.916 1.498.247 3.069.273 4.56-.055.295-.292.545-.626.735-.986" style="fill:#590600"/><path d="M77.451 47.11c1.029-2.672 1.338-5.39 1.011-7.905-.331-2.55-1.266-4.85-2.515-6.889a22 22 0 0 0-1.746-2.447c.112.47.173.949.166 1.434-.017 1.054-.409 2.13-1.158 2.886-.888.897-2.146 1.186-3.339 1.473.277.222.604.38.925.532.498.237 1.007.458 1.462.774.44.306.768.689 1.045 1.146.566.932.835 2.026.861 3.11.05 2.07-.65 4.111-1.676 5.886a16.6 16.6 0 0 1-4.024 4.661c-1.709 1.357-3.641 2.417-5.662 3.231-2.046.825-4.208 1.399-6.407 1.611-2.332.225-4.727.082-7.044-.224a34.4 34.4 0 0 1-5.474-1.187 25.8 25.8 0 0 0 7.102 3.228c2.84.802 5.759 1.07 8.7.872 2.921-.197 5.85-.781 8.528-1.993a18.1 18.1 0 0 0 5.406-3.737c1.618-1.985 2.968-4.201 3.839-6.462M65.291 33.072c1.361.397 2.984.75 4.253-.08 2.191-1.432-.277-4.173-1.532-5.301-.769-.692-1.653-1.215-2.584-1.66a15.5 15.5 0 0 0-3.625-1.232c-1.153-.231-2.412-.331-3.544.053a3 3 0 0 0-.636.304c.032 2.509 1.795 4.837 3.809 6.205 1.161.789 2.518 1.319 3.859 1.711" style="fill:#a31516"/><path d="M87.472 9.368c.169-.875-.075-1.776-.371-2.594-.177-.489-.374-.971-.71-1.375-.381-.458-1.065-.677-1.609-.377-.426.235-.544.705-.563 1.166-.04.05-.083.1-.112.149-.214.359-.306.841-.403 1.243-.102.423-.191.849-.293 1.272-.118.488-.338.906-.604 1.331-1.19 1.9-2.948 3.308-4.687 4.681-1.88 1.484-3.765 2.964-5.64 4.455-2.392 1.903-4.745 3.876-6.802 6.146-.868.957-1.658 1.981-2.482 2.974-.578.697-1.338 1.636-.896 2.593.385.833 1.437.603 2.05.18.867-.6 1.121-1.692 1.55-2.591.865-1.815 2.527-3.346 3.968-4.705 1.614-1.522 3.319-2.946 5.063-4.315 1.77-1.389 3.604-2.717 5.27-4.231 1.865-1.694 3.544-3.577 5.396-5.286.179.121.376.212.591.255.328.066.708-.015.949-.257.191-.191.285-.454.335-.714" style="fill:#58372e"/><path d="M87.472 9.368c.164-.848-.061-1.72-.345-2.519a6.8 6.8 0 0 1-.619 1.858c-.075.147-.278.132-.361.004-.392-.609-.591-1.308-.763-2.016-.018.5-.069.997-.19 1.481-.242.973-.796 1.807-1.478 2.529-1.875 1.986-4.009 3.683-6.133 5.389-2.134 1.714-4.304 3.384-6.376 5.174-2.022 1.746-4.003 3.552-5.353 5.889-.606 1.048-1.051 2.169-1.523 3.281a13 13 0 0 1-.494 1.037c.186-.068.363-.16.513-.263.867-.6 1.121-1.692 1.55-2.591.865-1.815 2.527-3.346 3.968-4.705 1.614-1.522 3.319-2.946 5.063-4.315 1.77-1.389 3.604-2.717 5.27-4.231 1.865-1.694 3.544-3.577 5.396-5.286.179.121.376.212.591.255.328.066.708-.015.949-.257.191-.191.285-.454.335-.714" style="fill:#58372e"/><path d="M37.047 45.949c-3.446.506-6.934 1.575-9.989 3.264-1.694.937-3.273 2.07-4.801 3.254-.298.231.202.864.503.681 1.458-.893 3.001-1.616 4.577-2.275a60 60 0 0 1 4.853-1.799c3.207-1.025 6.574-1.587 9.938-1.716 1.865-.072 3.76-.063 5.619.112.728.069.389-.859-.104-.991-3.481-.927-7.04-1.052-10.596-.53" style="fill:#344f1d"/><path d="M19.538 27.76c.148.26.33.508.469.773.075.143.108.298.194.437.094.151.198.297.299.443a15 15 0 0 0 1.323 1.617c.903.979 1.875 1.891 2.868 2.778 2.214 1.98 4.572 3.784 7.001 5.492a85 85 0 0 0 4.513 2.96 130 130 0 0 0-2.141-.378c-2.787-.462-5.551-.653-8.375-.503-5.438.289-10.911 1.363-15.815 3.796a14.5 14.5 0 0 0-3.213 2.158c-.48.426-.902.934-1.319 1.42-.453.528-.832 1.1-1.264 1.643-.199.25.231.787.507.577.469-.356.972-.66 1.444-1.012.445-.331.896-.653 1.36-.957.935-.612 1.837-1.242 2.842-1.742 2.299-1.146 4.812-1.951 7.296-2.579 2.571-.65 5.204-1.039 7.843-1.276 2.623-.236 5.248-.235 7.86.1-2.575.178-5.11.653-7.589 1.384-5.04 1.487-10.112 3.815-13.651 7.813-.844.953-1.692 2.009-2.263 3.154-.296.593-.566 1.219-.702 1.87-.137.655-.115 1.303.01 1.96.058.306.586.569.627.122.044-.476.259-.942.475-1.363.251-.491.541-.952.871-1.394.661-.888 1.375-1.704 2.121-2.521 1.623-1.778 3.596-3.255 5.688-4.437 2.229-1.259 4.653-2.232 7.082-3.029q.599-.196 1.203-.375c.996-.144 1.99-.312 2.99-.408 1.625-.156 3.261-.21 4.893-.236 3.223-.051 6.444.373 9.588 1.056a68 68 0 0 1 2.129.505l.788.348c1.486.654 2.979 1.298 4.517 1.821.743.252 1.494.482 2.255.673.812.204 1.675.44 2.516.415.456-.014.7-.359.65-.802-.054-.48-.398-.935-.86-1.096-.667-.232-1.361-.372-2.038-.577a27 27 0 0 1-2.009-.698c-1.33-.516-2.625-1.111-3.93-1.686-1.296-.572-2.602-1.124-3.894-1.706a3.4 3.4 0 0 0-.469-.213 89 89 0 0 1-1.354-.638 84 84 0 0 1-1.973-.976c-5.167-2.648-9.904-5.965-14.587-9.374-1.131-.824-2.226-1.636-3.29-2.552a28 28 0 0 1-1.564-1.45c-.507-.51-1.02-.969-1.417-1.571-.212-.324-.723-.15-.505.234" style="fill:#698a41"/><path d="m25.898 47.063.019-.006a32.4 32.4 0 0 0-5.016 1.648c-1.93.806-3.798 1.751-5.54 2.911-1.664 1.108-3.286 2.401-4.495 4.009-.957 1.274-1.616 2.821-1.311 4.394.056-.034.096-.101.106-.212.044-.476.259-.942.475-1.363.251-.491.541-.952.871-1.394.661-.888 1.375-1.704 2.121-2.521 1.623-1.778 3.596-3.255 5.688-4.437 2.229-1.258 4.653-2.232 7.082-3.029M32.329 39.74a68 68 0 0 0 4.346 1.528 109 109 0 0 1-4.279-2.52c-3.268-2.034-6.477-4.235-9.285-6.879a54 54 0 0 1-2.996-3.079c.024.061.05.122.086.18.094.151.198.297.299.443a15 15 0 0 0 1.323 1.617c.903.979 1.875 1.891 2.868 2.778 2.214 1.98 4.572 3.784 7.001 5.492q.317.22.637.44" style="fill:#698a41"/><path d="M26.47 15.666c-.473.715-.309 1.776-.216 2.574.117 1 .343 1.99.617 2.958.772 2.731 1.977 5.29 3.399 7.738 2.602 4.481 5.864 8.695 9.744 12.142a41 41 0 0 0 6.074 4.476 34 34 0 0 0 3.28 1.714q.827.384 1.671.729c.545.223 1.095.372 1.655.549q.867.271 1.744.51c.419.114.265-.465.004-.582-1.114-.497-2.163-1.094-3.244-1.654a46 46 0 0 1-3.108-1.775 48 48 0 0 1-5.605-4.043 43 43 0 0 1-2.366-2.144c-.545-.614-1.107-1.214-1.642-1.832-.906-1.047-1.765-2.099-2.547-3.244-1.597-2.338-2.942-4.804-3.916-7.466-.478-1.306-.884-2.638-1.275-3.973-.347-1.185-.715-2.37-1.029-3.565-.211-.803-.402-1.656-.794-2.394-.257-.485-.621-.997-1.181-1.153-.502-.139-.972-.008-1.265.435" style="fill:#506e31"/><path d="M45.568 44.825a45.6 45.6 0 0 1-7.777-6.442c-2.27-2.358-4.318-4.963-6.149-7.673-1.391-2.059-2.653-4.215-3.711-6.465a38 38 0 0 0 2.34 4.692c2.602 4.481 5.864 8.695 9.744 12.142a41 41 0 0 0 6.074 4.476 34 34 0 0 0 3.28 1.714q.826.384 1.671.729c.439.18.882.312 1.33.449-2.382-.973-4.657-2.21-6.802-3.622" style="fill:#698a41"/><path d="M19.105 13.155c-.524.982-.286 2.286-.108 3.325.411 2.389 1.421 4.639 2.432 6.823a49 49 0 0 0 3.448 6.262c1.288 1.964 2.689 3.872 4.289 5.596a23 23 0 0 0 2.536 2.355c.517.412 1.059.778 1.612 1.13a20 20 0 0 0 1.925 1.454c.842.549 1.762.956 2.61 1.496.432.275.834.595 1.206.946.191.181.313-.09.164-.247-1.158-1.222-2.595-2.133-3.937-3.146a6 6 0 0 0-.318-.322c-.379-.349-.78-.673-1.18-.997a20 20 0 0 1-.563-.477c-1.312-1.32-2.462-2.819-3.547-4.316-1.362-1.88-2.696-3.763-3.763-5.831-1.09-2.112-2.123-4.304-2.958-6.531a28 28 0 0 1-1.034-3.336c-.125-.527-.241-1.061-.254-1.516-.016-.548-.017-1.101-.191-1.627-.198-.595-.578-1.309-1.221-1.51-.471-.148-.915.032-1.148.469" style="fill:#506e31"/><path d="M39.279 42.508q-.19-.148-.383-.295c-2.025-1.508-4.197-2.808-6.19-4.36a26 26 0 0 1-5.231-5.517c-.735-1.04-1.41-2.121-2.071-3.21a67 67 0 0 1-1.959-3.398 51 51 0 0 1-3.087-7.07 55 55 0 0 1-1.467-4.938c-.224.884-.039 1.911.107 2.762.411 2.389 1.421 4.639 2.432 6.823a49 49 0 0 0 3.448 6.262c1.288 1.964 2.689 3.872 4.289 5.596a23 23 0 0 0 2.536 2.355c.517.412 1.059.778 1.612 1.13a20 20 0 0 0 1.925 1.454c.842.549 1.762.956 2.61 1.496.432.275.834.595 1.206.946.112.104.199.054.223-.036" style="fill:#698a41"/><path d="M19.468 41.194c-2.156.346-4.306.82-6.394 1.464-1.995.615-3.959 1.411-5.709 2.563-.939.618-1.792 1.401-2.45 2.314a6.7 6.7 0 0 0-.781 1.476c-.095.242-.183.49-.249.742-.049.184-.014.316.01.499.018.145-.013.29-.03.436-.018.158.264.43.384.235.054-.088.105-.199.191-.261.102-.073.191-.06.285-.166.141-.16.248-.366.383-.535.261-.325.574-.63.854-.915.648-.658 1.411-1.225 2.185-1.726 1.691-1.096 3.378-1.829 5.316-2.462 4.652-1.52 9.565-2.126 14.427-2.489 1.474-.11 2.955-.196 4.434-.168 1.454.027 2.87.139 4.31.336.412.056.235-.584.005-.697-1.236-.605-2.603-.888-3.959-1.089-1.369-.203-2.785-.217-4.166-.21-3.018.015-6.063.174-9.046.653M36.49 44.848c-1.269.032-2.502.306-3.759.443-.299.032-.024.511.179.531.771.076 1.529.217 2.297.31.742.09 1.486.157 2.23.228 1.437.138 2.866.32 4.285.593 1.418.272 2.828.583 4.245.86 1.406.275 2.834.598 4.263.72.527.044.317-.751.006-.897-2.134-1.004-4.485-1.552-6.784-2.025-1.186-.244-2.372-.504-3.576-.637a24.5 24.5 0 0 0-3.386-.126" style="fill:#506e31"/><path d="M37.132 36.921c.176.242.385.468.552.715.09.134.14.284.242.412.11.139.23.273.347.407.457.524.97 1.005 1.495 1.459 1.007.872 2.075 1.669 3.161 2.44 2.421 1.72 4.967 3.25 7.571 4.675a85 85 0 0 0 4.815 2.437q-1.084-.078-2.17-.136c-2.821-.148-5.589-.029-8.379.436-5.372.895-10.69 2.574-15.292 5.539a14.5 14.5 0 0 0-2.951 2.504c-.43.477-.792 1.028-1.152 1.559-.391.575-.704 1.186-1.073 1.774-.17.271.317.756.568.517.426-.406.892-.765 1.322-1.167a28 28 0 0 1 1.245-1.103c.861-.713 1.687-1.439 2.629-2.049 2.157-1.395 4.564-2.476 6.962-3.378 2.482-.934 5.055-1.614 7.651-2.145 2.58-.528 5.189-.819 7.822-.779a35.4 35.4 0 0 0-7.387 2.223c-4.843 2.041-9.622 4.921-12.693 9.289-.732 1.042-1.457 2.186-1.896 3.387-.227.622-.426 1.275-.488 1.937-.063.666.032 1.308.228 1.946.092.298.646.499.637.051-.01-.477.152-.965.32-1.408a10 10 0 0 1 .709-1.483c.558-.956 1.177-1.848 1.826-2.743 1.414-1.948 3.21-3.637 5.157-5.045 2.074-1.5 4.375-2.738 6.699-3.801a49 49 0 0 1 1.153-.507c.974-.255 1.942-.533 2.926-.74 1.597-.336 3.217-.573 4.836-.782 3.197-.411 6.445-.349 9.646-.022.726.074 1.449.167 2.172.264l.822.258c1.55.484 3.105.957 4.692 1.305.766.168 1.539.312 2.316.417.83.112 1.714.25 2.547.132.452-.065.656-.435.556-.87-.108-.471-.5-.885-.978-.993-.689-.156-1.394-.218-2.089-.346a28 28 0 0 1-2.074-.469c-1.379-.364-2.733-.811-4.094-1.237-1.352-.423-2.711-.826-4.06-1.26a3.5 3.5 0 0 0-.49-.16c-.47-.155-.863-.29-1.417-.483a80 80 0 0 1-2.069-.75c-5.431-2.054-10.509-4.82-15.544-7.685-1.216-.692-2.395-1.377-3.555-2.168a28 28 0 0 1-1.716-1.266c-.561-.45-1.121-.849-1.584-1.402-.244-.294-.733-.064-.473.294" style="fill:#698a41"/><path d="m45.609 55.392.018-.008a32.5 32.5 0 0 0-4.801 2.198c-1.828 1.016-3.579 2.164-5.18 3.512-1.53 1.287-2.997 2.753-4.019 4.486-.809 1.373-1.29 2.984-.812 4.513.052-.04.084-.111.082-.223-.01-.477.152-.965.32-1.408a10 10 0 0 1 .709-1.483c.558-.956 1.177-1.848 1.826-2.743 1.414-1.948 3.21-3.637 5.157-5.045 2.075-1.498 4.375-2.736 6.7-3.799M51.181 47.395c1.482.401 2.983.733 4.489 1.033a109 109 0 0 1-4.534-2.026c-3.474-1.656-6.91-3.485-9.996-5.798a54 54 0 0 1-3.322-2.724q.045.088.106.169c.11.139.23.273.347.407.457.524.97 1.005 1.495 1.459 1.007.872 2.075 1.669 3.161 2.44 2.421 1.72 4.967 3.25 7.571 4.675q.341.183.683.365" style="fill:#698a41"/><path d="M42.668 24.127c-.39.763-.109 1.8.073 2.582.229.981.564 1.94.944 2.871 1.073 2.628 2.556 5.036 4.242 7.31 3.087 4.162 6.799 7.985 11.04 10.976a41 41 0 0 0 6.537 3.77c1.121.515 2.281.947 3.451 1.337q.865.288 1.742.538c.567.161 1.13.248 1.706.361q.891.172 1.79.312c.429.067.212-.492-.061-.579-1.163-.369-2.272-.846-3.409-1.281a46 46 0 0 1-3.287-1.417 48 48 0 0 1-6.022-3.391 43 43 0 0 1-2.59-1.867c-.61-.549-1.235-1.082-1.836-1.637-1.017-.939-1.989-1.889-2.894-2.939-1.849-2.145-3.461-4.445-4.726-6.982-.621-1.244-1.173-2.523-1.711-3.805-.478-1.139-.976-2.275-1.421-3.427-.299-.774-.585-1.601-1.056-2.29-.31-.454-.728-.921-1.302-1.013-.515-.084-.968.098-1.21.571" style="fill:#506e31"/><path d="M64.905 50.969a45.5 45.5 0 0 1-8.448-5.533c-2.519-2.089-4.846-4.449-6.969-6.938-1.612-1.89-3.107-3.892-4.411-6.01.839 1.532 1.805 2.992 2.85 4.401 3.087 4.162 6.799 7.985 11.04 10.976a41 41 0 0 0 6.537 3.77c1.121.515 2.281.947 3.451 1.337q.865.289 1.742.538c.456.13.911.212 1.372.297-2.475-.7-4.874-1.675-7.164-2.838" style="fill:#698a41"/><path d="M35.069 22.455c-.411 1.034-.029 2.304.265 3.316.675 2.328 1.93 4.451 3.18 6.509a49 49 0 0 0 4.126 5.837c1.5 1.808 3.105 3.548 4.888 5.082q1.314 1.132 2.783 2.057c.559.352 1.139.655 1.728.943.67.445 1.354.867 2.075 1.23.898.452 1.858.753 2.761 1.195.46.225.895.498 1.304.806.211.158.301-.124.135-.264-1.287-1.085-2.817-1.829-4.264-2.687a6 6 0 0 0-.353-.284c-.415-.305-.851-.582-1.284-.859a20 20 0 0 1-.612-.411c-1.451-1.165-2.761-2.526-4.007-3.893-1.564-1.716-3.1-3.439-4.391-5.374-1.319-1.977-2.591-4.04-3.669-6.159a28 28 0 0 1-1.4-3.2c-.183-.51-.358-1.028-.422-1.478-.077-.543-.139-1.093-.372-1.596-.263-.569-.72-1.236-1.382-1.364-.485-.095-.906.134-1.089.594" style="fill:#506e31"/><path d="M58.397 49.369q-.206-.126-.414-.25c-2.181-1.272-4.485-2.321-6.638-3.641a25.9 25.9 0 0 1-5.814-4.898c-.847-.952-1.639-1.95-2.417-2.958-.799-1.036-1.589-2.077-2.327-3.158a51 51 0 0 1-3.858-6.681 55 55 0 0 1-2.009-4.744c-.124.903.174 1.904.415 2.732.675 2.328 1.93 4.451 3.18 6.509a49 49 0 0 0 4.126 5.837c1.5 1.808 3.105 3.548 4.888 5.082q1.314 1.132 2.783 2.057c.559.352 1.139.655 1.728.943.67.445 1.354.867 2.075 1.23.898.452 1.858.753 2.761 1.195.46.225.895.498 1.304.806.123.091.203.032.217-.061" style="fill:#698a41"/><path d="M38.564 50.277c-2.104.585-4.187 1.296-6.19 2.17-1.913.834-3.777 1.844-5.386 3.185-.864.719-1.624 1.593-2.176 2.574a6.7 6.7 0 0 0-.612 1.554 6 6 0 0 0-.164.765c-.028.188.022.316.065.495.035.142.02.29.019.437-.001.159.311.397.408.19.044-.094.082-.209.16-.28.093-.084.183-.081.265-.197.123-.174.206-.392.321-.574.223-.353.5-.69.747-1.004.571-.726 1.266-1.375 1.978-1.959 1.558-1.278 3.152-2.195 5.007-3.041 4.453-2.03 9.268-3.182 14.058-4.086 1.452-.274 2.915-.525 4.387-.662a37 37 0 0 1 4.321-.148c.415.01.169-.607-.073-.693-1.296-.463-2.686-.591-4.056-.64-1.383-.049-2.792.095-4.163.257-2.998.35-6.006.848-8.916 1.657M55.887 52.006c-1.258.173-2.452.584-3.685.861-.293.066.033.511.237.508.774-.011 1.544.044 2.317.051.748.007 1.494-.01 2.241-.022a46 46 0 0 1 4.324.11c1.44.112 2.876.263 4.315.38 1.428.116 2.883.278 4.317.239.528-.014.231-.782-.094-.892-2.233-.759-4.63-1.041-6.968-1.254-1.206-.11-2.413-.235-3.625-.234a25 25 0 0 0-3.379.253" style="fill:#506e31"/><path d="M10.686 38.193c-1.3.258-2.567.691-3.837 1.065-.292.086.016.572.251.537 1.2-.175 2.397-.216 3.604-.302 1.185-.084 2.367-.165 3.556-.187 2.351-.044 4.698-.07 7.047.076 4.366.272 8.703 1.003 12.999 1.794 1.159.213 2.338.424 3.472.746 1.129.321 2.246.686 3.365 1.042.154.049.273-.076.284-.217.014-.178-.131-.32-.27-.403a19.4 19.4 0 0 0-2.995-1.428c-1.044-.399-2.088-.801-3.155-1.134-2.131-.664-4.325-1.121-6.53-1.464-4.605-.715-9.241-1.118-13.897-.729-1.306.111-2.611.349-3.894.604" style="fill:#344f1d"/><path d="M8.886 25.549c.219.388.379.807.592 1.2.225.414.493.79.778 1.164a17 17 0 0 0 1.9 2.072c1.461 1.369 3.079 2.55 4.769 3.618 3.557 2.249 7.338 4.28 11.316 5.674 2.399.84 4.856 1.53 7.387 1.805.304.033.549-.137.517-.467-.033-.347-.321-.619-.641-.71-4.244-1.219-8.337-2.868-12.315-4.779a104 104 0 0 1-5.001-2.595c-1.615-.886-3.169-1.811-4.684-2.926a25 25 0 0 1-2.339-1.929c-.366-.345-.706-.715-1.06-1.072-.349-.352-.729-.722-.984-1.149-.096-.161-.345-.101-.235.094" style="fill:#344f1d"/><path d="m141.577 309.802-.8-.003c-5.566-6.431-35.146-11.639-35.499-11.639H76.924c-.347 0-28.949 5.035-35.199 11.316l-1.108-.004c-.355.984.008 2.189.008 2.189.063.991.955 1.91 2.518 2.752 6.636 3.576 25.299 5.774 43.32 6.279q2.333.066 4.639.093c23.463-.278 49.926-3.54 50.47-9.063h.005c.377-.976 0-1.92 0-1.92" style="fill:#9fa6ab"/><path d="M40.617 309.473c-.122.506.008.839.008.839.063.991.955 1.91 2.518 2.752 6.636 3.576 25.298 5.774 43.32 6.279 1.554.044 3.103.075 4.639.093 23.463-.278 49.926-3.54 50.47-9.063h.005a2.6 2.6 0 0 0 .166-.856z" style="fill:#9fa6ab"/><path d="M141.23 308.49c-4.128-6.708-35.588-12.25-35.952-12.25H76.924c-.364 0-31.824 5.541-35.952 12.25-3.651 5.934 21.488 9.609 45.49 10.283 1.554.044 3.103.075 4.639.093 25.266-.3 54.017-4.058 50.129-10.376" style="fill:#c5cdd2"/><g style="opacity:.44"><path d="M141.23 308.49c-4.128-6.708-35.588-12.25-35.952-12.25H76.924c-.186 0-8.47 1.444-17.088 3.749q.444-.063.89-.113a22 22 0 0 1 2.432-.139c.616.003 1.28-.007 1.879.162.653.184.776.622.644 1.233-.075.347-.16.695-.099 1.052.09.531.457.936.85 1.278.989.86 2.268 1.343 3.506 1.716 1.324.399 2.685.723 4.033 1.029 3.253.738 6.574 1.128 9.895 1.395 6.697.538 13.375-.319 20.022-1.054 3.11-.344 6.389-.924 9.459-.035 1.09.316 2.174.732 3.221 1.169 1.055.441 2.109.94 3.019 1.641.983.757 1.902 1.946.902 3.066-.908 1.017-2.47 1.475-3.731 1.845-3.222.945-6.617 1.326-9.936 1.774-6.556.885-13.161 1.429-19.777 1.551a143 143 0 0 1-9.876-.151c-3.226-.164-6.44-.491-9.659-.749-3.164-.253-6.331-.511-9.468-1.008a48.5 48.5 0 0 1-8.906-2.294c-2.263-.817-4.685-1.866-6.172-3.843-.433-.576-.868-1.335-1.085-2.103a5.5 5.5 0 0 0-.907 1.079c-3.651 5.934 21.488 9.609 45.49 10.283 1.554.044 3.103.075 4.639.093 25.266-.3 54.017-4.058 50.129-10.376" style="fill:#9fa6ab"/></g><path d="M97.621 184.184c.324-8.741 2.266-12.863 2.266-12.863 1.744-6.8 71.522-109.295 72.847-112.43 1.778-4.209-7.692-6.88-7.692-6.88-12.307-4.786-67.026-6.799-67.026-6.799l-13.829.178c-19.674.419-54.72 1.836-67.027 6.622 0 0-9.47 2.671-7.692 6.88 1.325 3.135 71.102 105.63 72.847 112.43 0 0 1.942 4.121 2.266 12.863 0 0 .175 2.46.418 6.641l.428 76.589c-.623 7.267-1.568 13.593-2.95 18.186 0 0-2.428 7.527-7.527 10.441s-9.713 4.856-4.613 6.799c3.35 1.276 8.796 2.447 15.305 2.963 0 0 3.685.293 5.46.262 1.775.031 5.46-.262 5.46-.262 6.509-.516 11.955-1.687 15.305-2.963 5.099-1.943.486-3.885-4.613-6.799S99.726 285.6 99.726 285.6c-1.382-4.592-2.327-10.919-2.95-18.186l.428-76.589c.243-4.181.417-6.641.417-6.641" style="fill:#c5cdd2"/><g style="opacity:.51"><path d="M162.238 53.454c-11.84-4.604-64.483-6.541-64.483-6.541l-13.306.17c-18.928.404-52.645 1.767-64.484 6.371 0 0-9.111 2.57-7.4 6.619.967 2.289 39.876 59.65 59.305 90.023 1.444 2.128 7.244 9.489 18.377 9.524 12.788.041 19.958-9.395 19.958-9.395l.047-.003c19.402-30.34 58.418-87.857 59.386-90.15 1.711-4.048-7.4-6.618-7.4-6.618" style="fill:#f5f5f7"/></g><linearGradient id="a" x1="91.087" x2="91.087" y1="153.311" y2="78.424" gradientUnits="userSpaceOnUse"><stop offset="0" style="stop-color:#ee2e27"/><stop offset=".072" style="stop-color:#ef3b29"/><stop offset=".207" style="stop-color:#f25e2e"/><stop offset=".307" style="stop-color:#f47c33"/><stop offset=".358" style="stop-color:#f58841"/><stop offset=".454" style="stop-color:#f8a865"/><stop offset=".584" style="stop-color:#fcda9f"/><stop offset=".658" style="stop-color:#fffac4"/><stop offset=".683" style="stop-color:#def2c3"/><stop offset=".732" style="stop-color:#a4e3c2"/><stop offset=".781" style="stop-color:#72d7c1"/><stop offset=".829" style="stop-color:#49cdc0"/><stop offset=".875" style="stop-color:#29c5bf"/><stop offset=".92" style="stop-color:#12c0be"/><stop offset=".963" style="stop-color:#05bcbe"/><stop offset="1" style="stop-color:#00bbbe"/></linearGradient><path d="M90.247 159.62c12.788.041 19.958-9.395 19.958-9.395l.047-.003c13.451-21.033 36.324-55.124 49.416-74.825-15.432-4.027-61.913-5.737-61.913-5.737l-13.306.17c-17.713.378-48.376 1.596-61.943 5.524 13.061 19.656 35.893 53.683 49.364 74.741 1.444 2.129 7.244 9.49 18.377 9.525" style="fill:url(#a)"/><path d="M73.251 154.257s7.527 11.231 9.065 15.378 2.416 7.425 2.577 4.77.58-3.738 3.979-4.851 5.827.203 6.961.952c1.133.748 2.347.263 3.48-2.651s4.932-8.874-1.133-7.608c-6.312 1.317-14.164.89-18.859-2.266-5.005-3.366-7.577-7.679-6.07-3.724" style="fill:#9fa6ab"/><linearGradient id="b" x1="24.435" x2="134.794" y1="114.505" y2="85.003" gradientUnits="userSpaceOnUse"><stop offset="0" style="stop-color:#fff"/><stop offset=".996" style="stop-color:#000"/></linearGradient><path d="M92.757 48.462s-60.482-.57-75 8.622c0 0-3.751.027-2.126 3.68s58.996 89.527 58.996 89.527 5.674 7.446 12.549 7.285c0 0 3.761.162 3.7-1.457s-19.372-79.51-18.053-90.422 53.281-12.326 61.861-11.862 11.008-.722 8.094-1.505c-2.915-.784-41.765-3.903-50.021-3.868" style="opacity:.58;fill:url(#b)"/><linearGradient id="c" x1="164.294" x2="85.257" y1="109.085" y2="100.344" gradientUnits="userSpaceOnUse"><stop offset="0" style="stop-color:#fff"/><stop offset=".996" style="stop-color:#000"/></linearGradient><path d="M153.137 52.841s15.702 2.266 13.436 8.094-54.552 82.881-54.552 82.881-5.989 10.846-14.245 12.95c0 0-4.047.647.971-2.59s50.182-93.565 49.049-96.64-19.409-5.472-11.636-6.022c6.132-.434 15.575 1.086 16.977 1.327" style="opacity:.58;fill:url(#c)"/><path d="M78.512 159.638s6.799 6.355 7.932 20.6 2.266 89.841.971 102.468c-1.295 12.626-10.684 16.026-12.303 16.511-1.619.486-1.619 1.295 0 2.104s14.893 2.914 21.368 1.619c0 0 5.18-.162-.809-1.295s-11.76-1.583-9.441-5.405 4.676-8.516 4.873-23.733c.198-15.216-1.966-82.597-2.62-91.946-.655-9.348-6.385-19.764-9.971-20.923" style="fill:#f5f5f7"/><path d="M103.846 157.58c-4.371 5.661-11.291 6.065-11.291 6.065-2.908-.003-6.695.089-8.256-.728-2.55-1.335-5.737-4.633-4.711-2.671 0 0 3.296 6.059 4.347 9.591s1.093.243 2.185-1.335c.862-1.244 3.461-1.263 4.779-1.391 2.117-.206 7.2-.794 6.386 4.516-.264 1.723.881 1.136 1.275-.215 1.028-3.524 5.407-11.409 6.5-13.833s-1.214.001-1.214.001" style="opacity:.51;fill:#f5f5f7"/><path d="m99.18 162.296-.072.013c-.721.151-1.2.74-1.802 1.111-.681.418-1.528.68-2.31.818-.328.058-.665.093-.969.228s-.578.393-.626.722c-.139.97 1.65.889 2.201 1.157.362.177.66.459.986.696.706.514 1.48.542 2.118-.104.639-.649 2.467-4.965.474-4.641M88.083 165.57c-.13-.323-.468-.537-.758-.699a8 8 0 0 0-1.015-.459c-.336-.13-.694-.26-1.054-.14-.357.119-.556.462-.537.83.018.344.169.662.393.918.123.3.305.622.578.778.294.168.687.139 1.007.083.389-.068.785-.215 1.087-.476.234-.203.425-.522.299-.835" style="opacity:.72;fill:#f5f5f7"/><path d="m18.241 60.406 56.872 87.781s1.666 3.561 4.475 5.342c0 0 1.919.809 1.312 0S24.235 59.26 24.235 59.26s-.661-1.122-2.411-.755c-1.749.366-4.578.365-3.583 1.901" style="opacity:.31;fill:#f5f5f7"/><path d="M164.064 61.835s-56.252 86.837-59.651 89.589 55.256-91.298 55.256-91.298 2.371-2.144 4.395 1.709" style="opacity:.31;fill:#f3bb9f"/><path d="M67.059 299.015s-21.643 5.321-24.039 8.984 10.744 7.366 17.617 8.013-3.169-2.064.837-4.856 10.441-6.253 10.441-6.253-7.162-3.703-4.856-5.888" style="opacity:.52;fill:#f5f5f7"/><path d="M115.825 299.46s1.646 3.073-3.186 4.867 5.209 1.446 6.828-.335 13.274 4.533 12.464 6.718-15.459 5.293-12.95 5.398c2.509.106 18.373-2.404 20.396-6.127 2.024-3.722-18.049-10.116-23.552-10.521" style="opacity:.86;fill:#f5f5f7"/><path d="M64.192 300.472c-1.262-.418-2.565.38-3.739.741a.4.4 0 0 0-.11.057l-.01.003q-1.335.39-2.659.819a211 211 0 0 0-5.245 1.782c-1.677.591-3.357 1.185-4.969 1.941-.622.292-1.257.593-1.833.971-.501.33-1.014.776-1.179 1.376-.173.631.119 1.265.501 1.759.423.546.97.967 1.588 1.272a3.9 3.9 0 0 0 1.115.379c.233.036.501.06.706-.081.167-.115.225-.297.246-.49.032-.294.02-.586.089-.876.335-1.417 1.794-2.053 2.954-2.678 1.588-.856 3.135-1.786 4.748-2.596.807-.405 1.625-.79 2.44-1.18.742-.355 1.466-.751 2.212-1.095.954-.441 2.077-.697 2.872-1.42.154-.14.285-.305.356-.502.029-.079-.005-.157-.083-.182" style="fill:#fff"/><path d="M108.324 305.515c-.512-.043-1.037.014-1.544.082-1.115.15-2.226.32-3.342.463-1.381.176-2.765.324-4.15.457q-.365.033-.73.064-3.259.264-6.526.34c-2.152.05-4.298-.004-6.448-.078-2.125-.073-4.252-.141-6.371-.323a70 70 0 0 1-3.458-.397c-1.146-.155-2.293-.336-3.403-.67-.139-.042-.436.161-.303.316.777.905 1.955 1.297 3.069 1.61.521.146 1.043.284 1.561.44.458.138 1.078.298 1.364.717.293.43-.126 1.071-.339 1.448a23 23 0 0 0-.875 1.768c-.312.687-.575 1.416-.945 2.074-.302.537-.711.814-1.304.959a7.7 7.7 0 0 1-2.087.192c-.688-.022-1.38-.114-2.027-.358-.157-.059-.425.197-.254.326.822.616 1.975.71 2.96.84 1.295.172 2.575.432 3.873.592 1.45.179 2.905.293 4.36.417 1.496.127 2.999.243 4.502.173a20 20 0 0 0 1.798-.138c.557-.077 1.141-.205 1.606-.537.078-.056.174-.213.057-.287-.256-.163-.549-.215-.846-.249-.2-.023-.536.001-.696-.149-.214-.2.059-.663.149-.86.194-.424.425-.833.694-1.214a5.4 5.4 0 0 1 2.146-1.789 20 20 0 0 1 3.157-1.15c2.179-.611 4.417-.964 6.629-1.428 1.167-.245 2.33-.52 3.479-.838.536-.148 1.065-.318 1.601-.464.464-.126.929-.246 1.385-.399.447-.149.888-.332 1.28-.596.253-.171.536-.394.677-.672.255-.5-.321-.65-.699-.682" style="opacity:.52;fill:#f5f5f7"/><path d="M87.366 307.907c-.44-.116-.908-.137-1.36-.144-.49-.007-.974.003-1.463-.043-.734-.069-1.47-.19-2.209-.155-.06.003-.119.016-.178.023-.361-.048-.723-.081-1.086-.045-.359.035-1.05.17-.967.67.043.257.189.516.299.749.136.288.288.57.382.875.143.462.102.912.018 1.377-.165.917-.388 1.826-.471 2.756-.047.531-.148 1.616.556 1.786.865.21 1.575-.63 1.979-1.27.509-.807.836-1.707 1.223-2.574.401-.899.997-1.963 2.009-2.24.428-.117.867-.214 1.275-.391.306-.133.716-.365.714-.75-.003-.373-.418-.544-.721-.624M95.241 307.791c-.556-.364-1.348-.4-1.99-.377a4.5 4.5 0 0 0-1.085.154c-.279.081-.616.195-.78.452l-.002.004a1 1 0 0 0-.21.15c-.047.046-.081.134-.038.194.166.235.535.311.798.357a5.3 5.3 0 0 0 1.277.05c.429-.031.86-.099 1.267-.241.295-.103.627-.264.784-.55.032-.061.047-.149-.021-.193M84.667 294.352c-.107-.332-.423-.347-.696-.202-1.837.975-2.789 3.045-4.69 3.876-.665.291-3.481 1.195-2.778 2.348.226.371.701.576 1.087.73.635.254 1.316.388 1.987.509.87.156 1.778.294 2.664.225.597-.047 1.549-.278 1.416-1.078-.086-.515-.568-.873-.652-1.387-.049-.295.085-.613.204-.877.145-.322.33-.624.496-.934.362-.679.667-1.433.869-2.175.086-.315.197-.712.093-1.035" style="fill:#fff"/><path d="M105.485 297.788c-1.62-1.04-3.46-1.855-4.809-3.26-.529-.972-1.128-1.903-1.653-2.877a21 21 0 0 1-1.508-3.549c-.39-1.225-.636-2.494-.914-3.748-.1-.451-.222-.898-.286-1.356-.052-.374-.089-.75-.138-1.124-.059-.449-.127-.902-.261-1.335-.099-.319-.238-.659-.514-.865-.126-.094-.297.059-.319.181-.248 1.374-.185 2.776-.115 4.163.069 1.363.121 2.727.244 4.087.117 1.291.333 2.553.576 3.824.172.901.306 1.809.527 2.7.385 1.557 1.121 3.342 2.779 3.888.704.232 1.427.405 2.112.692.313.131 1.304.554 1.023 1.048-.12.212-.352.375-.54.522-.244.19-.498.367-.741.559-.209.164-.878.702-.361.919.415.175.996.065 1.433.016a18 18 0 0 0 1.791-.294c.647-.139 1.292-.31 1.91-.552.502-.197 1.043-.45 1.406-.862 1.023-1.163-.821-2.25-1.642-2.777" style="fill:#c5cdd2"/><path d="M105.74 299.23c-.502-.083-.988.159-1.416.449a4.2 4.2 0 0 0-.8.358c-.477.263-.977.6-1.283 1.061-.026.039-.041.105-.008.145.275.33.752.333 1.144.281.513-.068 1.015-.26 1.473-.495.373-.191.762-.416 1.028-.747.145-.181.311-.411.304-.655s-.224-.361-.442-.397" style="fill:#f5f5f7"/><path d="M18.322 55.078s80.239-15.584 146.634 1.746c0 0-66.237-12.459-146.634-1.746" style="opacity:.84;fill:#fff"/><g style="opacity:.57"><path d="M66.6 70.743a187 187 0 0 1 2.995-.073c.228-.004.456-.003.683-.007 5.623-.403 11.265-.487 16.891-.859.174-.011.266.104.284.237.102-.007.204-.018.307-.022-.895-14.724-2.665-24.145-2.665-24.145l-26.682 2.408-.035.114q.343.893.656 1.854c1.685 5.193 2.7 11.455 3.493 17.574.126.97.238 1.946.354 2.92H66.6z" style="fill:#f5d962"/><path d="M66.6 70.743a187 187 0 0 1 2.995-.073c.228-.004.456-.003.683-.007 4.985-.358 9.985-.466 14.975-.745-.295-4.932-.733-9.869-1.371-14.698-.406-3.077-.894-6.165-1.511-9.101l-23.958 2.162-.035.114q.343.893.656 1.854c1.685 5.193 2.7 11.455 3.493 17.574.126.97.238 1.946.354 2.92z" style="fill:#fced8a"/><g style="opacity:.48"><path d="M66.6 70.743a187 187 0 0 1 2.995-.073c.228-.004.456-.003.683-.007 4.985-.358 9.985-.466 14.975-.745-.295-4.932-.733-9.869-1.371-14.698-.406-3.077-.894-6.165-1.511-9.101l-23.958 2.162-.035.114q.343.893.656 1.854c1.685 5.193 2.7 11.455 3.493 17.574.126.97.238 1.946.354 2.92z" style="fill:#fced8a"/></g></g><path d="M50.912 45.685a26 26 0 0 1-.731 2.224 60 60 0 0 1-1.481 3.618c-1.111 2.493-2.372 4.918-3.725 7.287a106 106 0 0 1-7.96 11.999c-2.237 2.912-4.635 5.72-7.267 8.286q.433.466.896.888c1.688 1.54 4.018 3.081 6.729 4.657q.146-.068.293-.138 1.002-.697 2.006-1.392c2.567-1.776 5.128-3.563 7.737-5.278 2.676-1.759 5.401-3.449 8.224-4.963q1.395-.749 2.824-1.432c.017-.216.02-.433.018-.646-.015-1.16-.269-2.298-.31-3.454-.025-.699.084-1.424.175-2.117q.143-1.09.377-2.162c.61-2.8 1.6-5.614 3.343-7.916 1.403-1.853 3.207-3.342 5.224-4.483 2.055-1.162 4.283-1.983 6.524-2.704 2.953-.951 5.894-1.955 8.868-2.838q.378-.111.757-.218c-11.249-.153-22.625.232-32.521.782" style="opacity:.37;fill:#989a99"/><path d="M49.633 71.405c-.924-2.965-2.087-5.848-3.28-8.714-.474-1.139-.971-2.267-1.378-3.432-.318-.909-.614-1.825-.933-2.734-.659-1.878-1.401-3.785-2.594-5.396-.544-.735-1.199-1.401-1.975-1.891a5 5 0 0 0-.318-.186q-.626.227-1.3.555S21.977 64.412 23.363 64.764c8.211 2.085 10.383 18.202 12.491 17.25s13.721-7.779 13.721-7.779.096-.924.181-2.419q-.06-.207-.123-.411" style="fill:#fced8a"/><path d="M34.957 77.89c-1.313-2.616-2.187-5.43-3.591-8.004-.969-1.777-2.268-3.433-4.054-4.443-1.297-.733-2.746-1.041-4.211-1.058-.135.152-.094.288.263.379 8.211 2.085 10.383 18.202 12.491 17.25.27-.122.697-.341 1.234-.629a24 24 0 0 1-2.132-3.495M53.659 46.142s8.741-8.807 12.986-9.407 15.78 1.115 18.282 8.596z" style="fill:#fced8a"/><path d="M79.169 45c-2.695-.603-5.414-1.109-8.159-1.427a47 47 0 0 0-3.301-.257c-.859-.038-1.758-.097-2.552-.455-.768-.346-1.27-1.038-1.408-1.866-.142-.854.133-1.703.539-2.448.271-.497.6-.96.961-1.4-4.511 1.863-11.591 8.995-11.591 8.995l27.371-.709q-.928-.223-1.86-.433" style="fill:#fdd301"/><path d="M60.294 42.136c1.41-1.113 2.989-2.103 4.682-2.722 1.593-.583 3.311-.814 5.002-.798 1.782.016 3.571.309 5.26.881 1.632.552 3.189 1.371 4.489 2.511 1.065.934 1.921 2.088 2.457 3.395l2.743-.071c-2.502-7.481-14.036-9.195-18.282-8.596s-12.986 9.407-12.986 9.407l2.755-.071c1.14-1.454 2.429-2.791 3.88-3.936" style="fill:#f5d962"/><path d="M66.646 36.736a124 124 0 0 0-10.369 2.039c-1.362.329-2.724.661-4.082 1.012-5.515 2.923-10.247 7.252-13.238 12.772-1.635 3.016-2.652 6.247-3.362 9.592-.826 3.89-1.312 7.874-1.177 11.856.064 1.902.33 3.752.649 5.624.133.781.295 1.752.788 2.383a34 34 0 0 0 2.66-1.228c1.594-.812 3.138-1.718 4.662-2.655q1.11-.684 2.211-1.38c.745-.469 1.512-.905 2.268-1.357 2.333-1.393 4.661-2.821 6.859-4.424-.522-4.055-.278-8.223.247-12.257.552-4.237 1.435-8.535 3.188-12.451 1.681-3.754 4.306-7.146 7.991-9.098q.47-.248.955-.465-.126.02-.25.037" style="fill:#f3ba04"/><path d="M62.731 37.793c-.691.202-1.369.449-2.017.763-.651.315-1.275.696-1.884 1.086-2.237 1.434-4.121 3.386-5.56 5.614-1.581 2.447-2.775 5.114-3.652 7.888-.859 2.718-1.44 5.511-2.027 8.297-.3 1.426-.602 2.852-.942 4.269-.324 1.35-.65 2.722-1.107 4.034-.288.826-.737 1.597-1.235 2.312a13.8 13.8 0 0 1-2.064 2.357c-1.366 1.231-3.255 2.391-5.171 1.938-1.285-.304-2.147-1.265-2.655-2.409l.001.064c.064 1.902.33 3.752.649 5.624.133.781.295 1.752.788 2.383a34 34 0 0 0 2.66-1.228c1.594-.812 3.138-1.718 4.662-2.655q1.11-.684 2.211-1.38c.745-.469 1.512-.905 2.268-1.357 2.333-1.393 4.661-2.821 6.859-4.424-.522-4.055-.278-8.223.247-12.257.552-4.237 1.435-8.535 3.188-12.451 1.681-3.754 4.306-7.146 7.991-9.098q.194-.102.389-.197c-1.203.264-2.417.481-3.599.827" style="fill:#fdd301"/><path d="M62.755 37.401a21 21 0 0 0-3.991 3.543c-2.087 2.387-3.673 5.19-4.848 8.126-1.225 3.058-2.026 6.28-2.482 9.54a46 46 0 0 0-.312 9.825c.114 1.491.302 2.982.583 4.454a63 63 0 0 0 2.81-1.917c-.522-4.055-.278-8.223.247-12.257.552-4.237 1.435-8.535 3.188-12.451 1.681-3.754 4.306-7.146 7.991-9.098q.47-.248.955-.465-.125.018-.25.035c-1.301.198-2.598.424-3.891.665" style="fill:#f5d962"/><path d="M53.068 67.906c-.171-3.185-.163-6.386.131-9.563.288-3.114.848-6.22 1.859-9.185.962-2.821 2.343-5.51 4.256-7.807a19.9 19.9 0 0 1 4.899-4.212q-.73.127-1.457.261a21 21 0 0 0-3.991 3.543c-2.087 2.387-3.673 5.19-4.848 8.126-1.225 3.058-2.026 6.28-2.482 9.54a46 46 0 0 0-.312 9.825c.114 1.491.302 2.982.583 4.454a78 78 0 0 0 1.662-1.111 86 86 0 0 1-.3-3.871" style="fill:#fced8a"/><path d="M47.459 45.827c-.507-.691-1.512-.407-2.135-.062a7 7 0 0 0-1.989 1.654c-.472.574-1.029 1.341-.786 2.131.152.495.603.691 1.096.597.223-.042.43-.134.622-.25a2.5 2.5 0 0 0 .41-.144c.807-.373 1.562-.998 2.145-1.663.488-.557 1.18-1.522.637-2.263M40.045 52.604l.011-.014c.013-.025.015-.029-.011.014" style="fill:#fdd301"/><path d="M41.236 52.46a.35.35 0 0 0-.145-.206.47.47 0 0 0-.257-.075q-.021-.002-.042-.001c-.14.007-.142.009-.252.045-.107.035-.128.037-.242.117-.053.037-.038.012-.142.12a1 1 0 0 0-.102.131c-.021.04-.072.132-.081.161a2 2 0 0 0-.031.149.5.5 0 0 0 .009.134c-.017.054-.039.113-.039.166a.22.22 0 0 0 .029.146.2.2 0 0 0 .091.114c.125.087.304.068.435.008q.027-.015.052-.033a.8.8 0 0 0 .169-.051l.081-.045a.5.5 0 0 0 .144-.101c.018-.015.053-.042.075-.065.021-.022.044-.056.058-.073.01-.013.041-.049.057-.075l.005-.008c.019-.032.057-.113.071-.149l.004-.011a.4.4 0 0 0 .028-.114.44.44 0 0 0 .025-.284M39.292 57.497a.553.553 0 0 0-.682-.33c-.901.272-1.499.978-1.858 1.823-.252.593-.412 1.393-.177 2.022q.022.217.086.419c.067.205.239.313.452.317.793.015 1.44-.591 1.777-1.262.316-.629.5-1.334.518-2.04.007-.313-.006-.653-.116-.949M49.001 43.553c-.334 0-.646.593-.203.593.333 0 .646-.593.203-.593M36.94 72.618l-.001-.004a.5.5 0 0 0-.048-.105.4.4 0 0 0-.088-.087.44.44 0 0 0-.236-.068h-.012a.5.5 0 0 0-.199.035.6.6 0 0 0-.2.097.55.55 0 0 0-.159.155.5.5 0 0 0-.101.175l-.025.12a.34.34 0 0 0 .056.216l.049.049.009.009.021.021.006.003q.014.013.029.025.075.053.164.057a.4.4 0 0 0 .192-.004l.135-.044a.8.8 0 0 0 .248-.174l.088-.112a.5.5 0 0 0 .082-.239v-.006a1 1 0 0 0-.01-.119M30.273 63.386c-.402-.491-1.093-.68-1.706-.684-.658-.004-1.407.271-1.79.829a.85.85 0 0 0-.296.583c-.031.491.356.864.807.973q.087.02.175.03l.08.012.05.007.052.002a3 3 0 0 0 .435-.032 3 3 0 0 0 .547-.122c.455-.142.942-.323 1.314-.629.154-.127.32-.28.378-.481.045-.156.066-.352-.046-.488M75.187 40.856c-.75-.588-1.926-.662-2.82-.273-.535-.04-1.007.184-1.406.537a.53.53 0 0 0-.165.481c.14.635.757 1.028 1.355 1.168.687.16 1.472.132 2.11-.192.494-.251.856-.61 1.089-1.114.101-.216.015-.467-.163-.607" style="fill:#fdd301"/><path d="M28.449 85.718s-10.769-15.767-23.81-7.08c0 0-2.994 1.378-1.665 1.533 7.872.92 11.874 15.597 13.712 14.454s11.763-8.907 11.763-8.907" style="fill:#fced8a"/><path d="M15.344 90.912c-1.54-2.264-2.698-4.766-4.318-6.979-1.118-1.528-2.527-2.904-4.308-3.619-1.293-.519-2.675-.626-4.035-.461-.106.158-.052.279.291.319 7.872.92 11.874 15.597 13.712 14.454.235-.146.604-.402 1.067-.735a22.3 22.3 0 0 1-2.409-2.979" style="fill:#fced8a"/><path d="M12.814 76.028c-.26.898-.472 1.81-.618 2.736-.427 2.709-.344 5.473.111 8.173.14.833.318 1.658.521 2.477 1.808 3.126 3.045 5.718 3.858 5.212 1.837-1.143 11.763-8.907 11.763-8.907s-6.558-9.601-15.635-9.691" style="fill:#fced8a"/><path d="M39.651 48.838a116 116 0 0 0-9.363 3.17c-1.223.473-2.445.95-3.661 1.442-4.754 3.391-8.607 7.989-10.7 13.478-1.144 2.999-1.688 6.12-1.934 9.31-.286 3.709-.244 7.464.372 11.139.294 1.755.769 3.439 1.296 5.135.22.708.49 1.588 1.025 2.113a32 32 0 0 0 2.315-1.467c1.378-.95 2.698-1.981 3.996-3.037q.944-.771 1.88-1.553c.633-.527 1.291-1.026 1.936-1.538 1.992-1.58 3.974-3.191 5.815-4.949-.985-3.696-1.273-7.591-1.284-11.397-.011-3.997.277-8.091 1.42-11.94 1.095-3.689 3.111-7.158 6.287-9.423q.406-.288.829-.549c-.077.025-.153.044-.229.066" style="fill:#f3ba04"/><path d="M36.151 50.302c-.616.273-1.214.586-1.776.956-.565.372-1.097.803-1.613 1.239-1.897 1.606-3.403 3.649-4.463 5.892-1.164 2.465-1.942 5.084-2.413 7.766-.461 2.626-.656 5.288-.855 7.944a146 146 0 0 1-.347 4.075c-.134 1.292-.266 2.604-.529 3.877-.165.801-.486 1.572-.86 2.297a13 13 0 0 1-1.623 2.44c-1.115 1.31-2.724 2.619-4.556 2.436-1.229-.123-2.147-.908-2.76-1.906l.009.059c.294 1.755.769 3.439 1.296 5.135.22.708.49 1.588 1.025 2.113a32 32 0 0 0 2.315-1.467c1.378-.95 2.698-1.981 3.996-3.037q.944-.771 1.88-1.553c.633-.527 1.291-1.026 1.936-1.538 1.992-1.58 3.974-3.191 5.815-4.949-.985-3.696-1.273-7.591-1.284-11.397-.011-3.997.277-8.091 1.42-11.94 1.095-3.689 3.111-7.158 6.287-9.423q.166-.118.336-.23c-1.083.393-2.182.744-3.236 1.211" style="fill:#fdd301"/><path d="M36.125 49.935a19.7 19.7 0 0 0-3.264 3.778c-1.641 2.471-2.765 5.266-3.493 8.133-.758 2.987-1.104 6.074-1.124 9.153-.02 3.069.288 6.147.923 9.149.29 1.369.649 2.728 1.09 4.059a59 59 0 0 0 2.369-2.125c-.985-3.696-1.273-7.591-1.284-11.397-.011-3.997.277-8.091 1.42-11.94 1.095-3.689 3.111-7.158 6.287-9.423q.406-.288.829-.549l-.227.064a120 120 0 0 0-3.526 1.098" style="fill:#f5d962"/><path d="M30.371 79.159c-.663-2.785-1.085-5.633-1.195-8.495-.108-2.828.094-5.677.702-8.444.596-2.713 1.594-5.344 3.027-7.728a23.7 23.7 0 0 1 3.759-4.729l-.539.172a19.7 19.7 0 0 0-3.264 3.778c-1.641 2.471-2.765 5.266-3.493 8.133-.758 2.987-1.104 6.074-1.124 9.153-.02 3.069.288 6.146.923 9.149.29 1.369.649 2.728 1.09 4.059q.624-.533 1.235-1.08a50 50 0 0 1-1.121-3.968" style="fill:#fced8a"/><path d="M22.981 59.637c-.555-.578-1.452-.191-1.988.206a6.5 6.5 0 0 0-1.64 1.779c-.366.59-.789 1.37-.466 2.073.202.44.644.567 1.09.419.202-.067.382-.177.546-.309q.186-.075.362-.184c.702-.446 1.326-1.118 1.784-1.806.384-.578.907-1.558.312-2.178" style="fill:#fdd301"/><path d="m16.942 66.836.008-.014c.01-.024.011-.029-.008.014" style="fill:#a3ce6d"/><path d="M18.029 66.556a.33.33 0 0 0-.16-.174.44.44 0 0 0-.248-.038q-.02 0-.039.004c-.129.023-.13.026-.228.073-.095.045-.114.05-.21.138-.045.041-.034.016-.117.129a1 1 0 0 0-.078.134c-.015.04-.051.132-.055.159-.004.03-.011.112-.01.142a.4.4 0 0 0 .025.123c-.01.052-.022.11-.016.159q0 .075.045.132a.2.2 0 0 0 .099.095c.127.065.29.025.404-.046.017-.01.029-.025.044-.037a.7.7 0 0 0 .151-.068l.069-.052a.4.4 0 0 0 .121-.111c.015-.017.044-.046.062-.07.017-.023.034-.058.045-.075.008-.013.032-.051.044-.076l.003-.008c.014-.032.039-.112.048-.147l.003-.011a.5.5 0 0 0 .012-.11.43.43 0 0 0-.014-.265M16.847 71.466a.516.516 0 0 0-.673-.221c-.802.363-1.27 1.092-1.498 1.92-.161.581-.21 1.342.086 1.896q.047.198.131.378c.088.182.26.261.458.238.737-.084 1.263-.726 1.492-1.389a4.54 4.54 0 0 0 .228-1.956c-.031-.291-.085-.604-.224-.866M16.533 85.779l-.001-.004a.5.5 0 0 0-.057-.091c-.022-.029-.075-.059-.088-.067l-.005-.003a.4.4 0 0 0-.228-.034l-.011.001a.4.4 0 0 0-.18.057.5.5 0 0 0-.174.114.5.5 0 0 0-.128.163.5.5 0 0 0-.072.175l-.008.114a.3.3 0 0 0 .079.193l.052.039.01.007.022.017.006.002q.014.01.03.02a.3.3 0 0 0 .16.033.4.4 0 0 0 .178-.028l.12-.057a.7.7 0 0 0 .208-.192l.067-.115a.5.5 0 0 0 .047-.232v-.005q-.011-.053-.027-.107" style="fill:#fdd301"/></svg>
